<?xml version="1.0" encoding="UTF-8" standalone="no"?><svg xmlns="http://www.w3.org/2000/svg" xmlns:xlink="http://www.w3.org/1999/xlink" contentScriptType="application/ecmascript" contentStyleType="text/css" height="1683px" preserveAspectRatio="none" style="width:581px;height:1683px;background:#FFFFFF;" version="1.1" viewBox="0 0 581 1683" width="581px" zoomAndPan="magnify"><defs><filter height="300%" id="f1prgh0uthdtbx" width="300%" x="-1" y="-1"><feGaussianBlur result="blurOut" stdDeviation="2.0"/><feColorMatrix in="blurOut" result="blurOut2" type="matrix" values="0 0 0 0 0 0 0 0 0 0 0 0 0 0 0 0 0 0 .4 0"/><feOffset dx="4.0" dy="4.0" in="blurOut2" result="blurOut3"/><feBlend in="SourceGraphic" in2="blurOut3" mode="normal"/></filter></defs><g><line style="stroke:#A80036;stroke-width:1.0;stroke-dasharray:5.0,5.0;" x1="23" x2="23" y1="40.2969" y2="1640.6719"/><line style="stroke:#A80036;stroke-width:1.0;stroke-dasharray:5.0,5.0;" x1="258" x2="258" y1="40.2969" y2="1640.6719"/><line style="stroke:#A80036;stroke-width:1.0;stroke-dasharray:5.0,5.0;" x1="470.5" x2="470.5" y1="40.2969" y2="1640.6719"/><line style="stroke:#A80036;stroke-width:1.0;stroke-dasharray:5.0,5.0;" x1="547.5" x2="547.5" y1="40.2969" y2="1640.6719"/><rect fill="#FEFECE" filter="url(#f1prgh0uthdtbx)" height="30.2969" style="stroke:#A80036;stroke-width:1.5;" width="33" x="5" y="5"/><text fill="#000000" font-family="sans-serif" font-size="14" lengthAdjust="spacing" textLength="19" x="12" y="24.9951">G4</text><rect fill="#FEFECE" filter="url(#f1prgh0uthdtbx)" height="30.2969" style="stroke:#A80036;stroke-width:1.5;" width="33" x="5" y="1639.6719"/><text fill="#000000" font-family="sans-serif" font-size="14" lengthAdjust="spacing" textLength="19" x="12" y="1659.667">G4</text><rect fill="#FEFECE" filter="url(#f1prgh0uthdtbx)" height="30.2969" style="stroke:#A80036;stroke-width:1.5;" width="37" x="238" y="5"/><text fill="#000000" font-family="sans-serif" font-size="14" lengthAdjust="spacing" textLength="23" x="245" y="24.9951">IPC</text><rect fill="#FEFECE" filter="url(#f1prgh0uthdtbx)" height="30.2969" style="stroke:#A80036;stroke-width:1.5;" width="37" x="238" y="1639.6719"/><text fill="#000000" font-family="sans-serif" font-size="14" lengthAdjust="spacing" textLength="23" x="245" y="1659.667">IPC</text><rect fill="#FEFECE" filter="url(#f1prgh0uthdtbx)" height="30.2969" style="stroke:#A80036;stroke-width:1.5;" width="82" x="427.5" y="5"/><text fill="#000000" font-family="sans-serif" font-size="14" lengthAdjust="spacing" textLength="68" x="434.5" y="24.9951">SCANNER</text><rect fill="#FEFECE" filter="url(#f1prgh0uthdtbx)" height="30.2969" style="stroke:#A80036;stroke-width:1.5;" width="82" x="427.5" y="1639.6719"/><text fill="#000000" font-family="sans-serif" font-size="14" lengthAdjust="spacing" textLength="68" x="434.5" y="1659.667">SCANNER</text><rect fill="#FEFECE" filter="url(#f1prgh0uthdtbx)" height="30.2969" style="stroke:#A80036;stroke-width:1.5;" width="44" x="523.5" y="5"/><text fill="#000000" font-family="sans-serif" font-size="14" lengthAdjust="spacing" textLength="30" x="530.5" y="24.9951">MES</text><rect fill="#FEFECE" filter="url(#f1prgh0uthdtbx)" height="30.2969" style="stroke:#A80036;stroke-width:1.5;" width="44" x="523.5" y="1639.6719"/><text fill="#000000" font-family="sans-serif" font-size="14" lengthAdjust="spacing" textLength="30" x="530.5" y="1659.667">MES</text><polygon fill="#A80036" points="246.5,67.4297,256.5,71.4297,246.5,75.4297,250.5,71.4297" style="stroke:#A80036;stroke-width:1.0;"/><line style="stroke:#A80036;stroke-width:1.0;" x1="23.5" x2="252.5" y1="71.4297" y2="71.4297"/><text fill="#000000" font-family="sans-serif" font-size="13" lengthAdjust="spacing" textLength="112" x="30.5" y="66.3638">发送指令扫码指令1</text><polygon fill="#A80036" points="458.5,96.5625,468.5,100.5625,458.5,104.5625,462.5,100.5625" style="stroke:#A80036;stroke-width:1.0;"/><line style="stroke:#A80036;stroke-width:1.0;" x1="258.5" x2="464.5" y1="100.5625" y2="100.5625"/><text fill="#000000" font-family="sans-serif" font-size="13" lengthAdjust="spacing" textLength="78" x="265.5" y="95.4966">发送LON指令</text><polygon fill="#A80036" points="269.5,125.6953,259.5,129.6953,269.5,133.6953,265.5,129.6953" style="stroke:#A80036;stroke-width:1.0;"/><line style="stroke:#A80036;stroke-width:1.0;" x1="263.5" x2="469.5" y1="129.6953" y2="129.6953"/><text fill="#000000" font-family="sans-serif" font-size="13" lengthAdjust="spacing" textLength="39" x="275.5" y="124.6294">二维码</text><line style="stroke:#A80036;stroke-width:1.0;" x1="258.5" x2="300.5" y1="158.8281" y2="158.8281"/><line style="stroke:#A80036;stroke-width:1.0;" x1="300.5" x2="300.5" y1="158.8281" y2="171.8281"/><line style="stroke:#A80036;stroke-width:1.0;" x1="259.5" x2="300.5" y1="171.8281" y2="171.8281"/><polygon fill="#A80036" points="269.5,167.8281,259.5,171.8281,269.5,175.8281,265.5,171.8281" style="stroke:#A80036;stroke-width:1.0;"/><text fill="#000000" font-family="sans-serif" font-size="13" lengthAdjust="spacing" textLength="104" x="265.5" y="153.7622">判断机种是否匹配</text><line style="stroke:#A80036;stroke-width:1.0;" x1="258.5" x2="300.5" y1="200.9609" y2="200.9609"/><line style="stroke:#A80036;stroke-width:1.0;" x1="300.5" x2="300.5" y1="200.9609" y2="213.9609"/><line style="stroke:#A80036;stroke-width:1.0;" x1="259.5" x2="300.5" y1="213.9609" y2="213.9609"/><polygon fill="#A80036" points="269.5,209.9609,259.5,213.9609,269.5,217.9609,265.5,213.9609" style="stroke:#A80036;stroke-width:1.0;"/><text fill="#000000" font-family="sans-serif" font-size="13" lengthAdjust="spacing" textLength="113" x="265.5" y="195.895">判断是否为Sample</text><polygon fill="#A80036" points="535.5,239.0938,545.5,243.0938,535.5,247.0938,539.5,243.0938" style="stroke:#A80036;stroke-width:1.0;"/><line style="stroke:#A80036;stroke-width:1.0;" x1="258.5" x2="541.5" y1="243.0938" y2="243.0938"/><text fill="#000000" font-family="sans-serif" font-size="13" lengthAdjust="spacing" textLength="229" x="265.5" y="238.0278">转发二维码 （SC，二维码，线材参数）</text><polygon fill="#A80036" points="269.5,268.2266,259.5,272.2266,269.5,276.2266,265.5,272.2266" style="stroke:#A80036;stroke-width:1.0;"/><line style="stroke:#A80036;stroke-width:1.0;" x1="263.5" x2="546.5" y1="272.2266" y2="272.2266"/><text fill="#000000" font-family="sans-serif" font-size="13" lengthAdjust="spacing" textLength="78" x="275.5" y="267.1606">回传MES判定</text><polygon fill="#A80036" points="34.5,297.3594,24.5,301.3594,34.5,305.3594,30.5,301.3594" style="stroke:#A80036;stroke-width:1.0;"/><line style="stroke:#A80036;stroke-width:1.0;" x1="28.5" x2="257.5" y1="301.3594" y2="301.3594"/><text fill="#000000" font-family="sans-serif" font-size="13" lengthAdjust="spacing" textLength="118" x="40.5" y="296.2935">1:为OK 其他为:错误</text><polygon fill="#A80036" points="246.5,326.4922,256.5,330.4922,246.5,334.4922,250.5,330.4922" style="stroke:#A80036;stroke-width:1.0;"/><line style="stroke:#A80036;stroke-width:1.0;" x1="23.5" x2="252.5" y1="330.4922" y2="330.4922"/><text fill="#000000" font-family="sans-serif" font-size="13" lengthAdjust="spacing" textLength="112" x="30.5" y="325.4263">发送指令扫码指令2</text><polygon fill="#A80036" points="458.5,355.625,468.5,359.625,458.5,363.625,462.5,359.625" style="stroke:#A80036;stroke-width:1.0;"/><line style="stroke:#A80036;stroke-width:1.0;" x1="258.5" x2="464.5" y1="359.625" y2="359.625"/><text fill="#000000" font-family="sans-serif" font-size="13" lengthAdjust="spacing" textLength="78" x="265.5" y="354.5591">发送LON指令</text><polygon fill="#A80036" points="269.5,384.7578,259.5,388.7578,269.5,392.7578,265.5,388.7578" style="stroke:#A80036;stroke-width:1.0;"/><line style="stroke:#A80036;stroke-width:1.0;" x1="263.5" x2="469.5" y1="388.7578" y2="388.7578"/><text fill="#000000" font-family="sans-serif" font-size="13" lengthAdjust="spacing" textLength="39" x="275.5" y="383.6919">二维码</text><line style="stroke:#A80036;stroke-width:1.0;" x1="258.5" x2="300.5" y1="417.8906" y2="417.8906"/><line style="stroke:#A80036;stroke-width:1.0;" x1="300.5" x2="300.5" y1="417.8906" y2="430.8906"/><line style="stroke:#A80036;stroke-width:1.0;" x1="259.5" x2="300.5" y1="430.8906" y2="430.8906"/><polygon fill="#A80036" points="269.5,426.8906,259.5,430.8906,269.5,434.8906,265.5,430.8906" style="stroke:#A80036;stroke-width:1.0;"/><text fill="#000000" font-family="sans-serif" font-size="13" lengthAdjust="spacing" textLength="104" x="265.5" y="412.8247">判断机种是否匹配</text><line style="stroke:#A80036;stroke-width:1.0;" x1="258.5" x2="300.5" y1="460.0234" y2="460.0234"/><line style="stroke:#A80036;stroke-width:1.0;" x1="300.5" x2="300.5" y1="460.0234" y2="473.0234"/><line style="stroke:#A80036;stroke-width:1.0;" x1="259.5" x2="300.5" y1="473.0234" y2="473.0234"/><polygon fill="#A80036" points="269.5,469.0234,259.5,473.0234,269.5,477.0234,265.5,473.0234" style="stroke:#A80036;stroke-width:1.0;"/><text fill="#000000" font-family="sans-serif" font-size="13" lengthAdjust="spacing" textLength="113" x="265.5" y="454.9575">判断是否为Sample</text><polygon fill="#A80036" points="535.5,498.1563,545.5,502.1563,535.5,506.1563,539.5,502.1563" style="stroke:#A80036;stroke-width:1.0;"/><line style="stroke:#A80036;stroke-width:1.0;" x1="258.5" x2="541.5" y1="502.1563" y2="502.1563"/><text fill="#000000" font-family="sans-serif" font-size="13" lengthAdjust="spacing" textLength="229" x="265.5" y="497.0903">转发二维码 （SC，二维码，线材参数）</text><polygon fill="#A80036" points="269.5,527.2891,259.5,531.2891,269.5,535.2891,265.5,531.2891" style="stroke:#A80036;stroke-width:1.0;"/><line style="stroke:#A80036;stroke-width:1.0;" x1="263.5" x2="546.5" y1="531.2891" y2="531.2891"/><text fill="#000000" font-family="sans-serif" font-size="13" lengthAdjust="spacing" textLength="78" x="275.5" y="526.2231">回传MES判定</text><polygon fill="#A80036" points="34.5,556.4219,24.5,560.4219,34.5,564.4219,30.5,560.4219" style="stroke:#A80036;stroke-width:1.0;"/><line style="stroke:#A80036;stroke-width:1.0;" x1="28.5" x2="257.5" y1="560.4219" y2="560.4219"/><text fill="#000000" font-family="sans-serif" font-size="13" lengthAdjust="spacing" textLength="118" x="40.5" y="555.356">1:为OK 其他为:错误</text><polygon fill="#A80036" points="246.5,585.5547,256.5,589.5547,246.5,593.5547,250.5,589.5547" style="stroke:#A80036;stroke-width:1.0;"/><line style="stroke:#A80036;stroke-width:1.0;" x1="23.5" x2="252.5" y1="589.5547" y2="589.5547"/><text fill="#000000" font-family="sans-serif" font-size="13" lengthAdjust="spacing" textLength="112" x="30.5" y="584.4888">发送指令扫码指令3</text><polygon fill="#A80036" points="458.5,614.6875,468.5,618.6875,458.5,622.6875,462.5,618.6875" style="stroke:#A80036;stroke-width:1.0;"/><line style="stroke:#A80036;stroke-width:1.0;" x1="258.5" x2="464.5" y1="618.6875" y2="618.6875"/><text fill="#000000" font-family="sans-serif" font-size="13" lengthAdjust="spacing" textLength="78" x="265.5" y="613.6216">发送LON指令</text><polygon fill="#A80036" points="269.5,643.8203,259.5,647.8203,269.5,651.8203,265.5,647.8203" style="stroke:#A80036;stroke-width:1.0;"/><line style="stroke:#A80036;stroke-width:1.0;" x1="263.5" x2="469.5" y1="647.8203" y2="647.8203"/><text fill="#000000" font-family="sans-serif" font-size="13" lengthAdjust="spacing" textLength="39" x="275.5" y="642.7544">二维码</text><line style="stroke:#A80036;stroke-width:1.0;" x1="258.5" x2="300.5" y1="676.9531" y2="676.9531"/><line style="stroke:#A80036;stroke-width:1.0;" x1="300.5" x2="300.5" y1="676.9531" y2="689.9531"/><line style="stroke:#A80036;stroke-width:1.0;" x1="259.5" x2="300.5" y1="689.9531" y2="689.9531"/><polygon fill="#A80036" points="269.5,685.9531,259.5,689.9531,269.5,693.9531,265.5,689.9531" style="stroke:#A80036;stroke-width:1.0;"/><text fill="#000000" font-family="sans-serif" font-size="13" lengthAdjust="spacing" textLength="104" x="265.5" y="671.8872">判断机种是否匹配</text><line style="stroke:#A80036;stroke-width:1.0;" x1="258.5" x2="300.5" y1="719.0859" y2="719.0859"/><line style="stroke:#A80036;stroke-width:1.0;" x1="300.5" x2="300.5" y1="719.0859" y2="732.0859"/><line style="stroke:#A80036;stroke-width:1.0;" x1="259.5" x2="300.5" y1="732.0859" y2="732.0859"/><polygon fill="#A80036" points="269.5,728.0859,259.5,732.0859,269.5,736.0859,265.5,732.0859" style="stroke:#A80036;stroke-width:1.0;"/><text fill="#000000" font-family="sans-serif" font-size="13" lengthAdjust="spacing" textLength="113" x="265.5" y="714.02">判断是否为Sample</text><polygon fill="#A80036" points="535.5,757.2188,545.5,761.2188,535.5,765.2188,539.5,761.2188" style="stroke:#A80036;stroke-width:1.0;"/><line style="stroke:#A80036;stroke-width:1.0;" x1="258.5" x2="541.5" y1="761.2188" y2="761.2188"/><text fill="#000000" font-family="sans-serif" font-size="13" lengthAdjust="spacing" textLength="229" x="265.5" y="756.1528">转发二维码 （SC，二维码，线材参数）</text><polygon fill="#A80036" points="269.5,786.3516,259.5,790.3516,269.5,794.3516,265.5,790.3516" style="stroke:#A80036;stroke-width:1.0;"/><line style="stroke:#A80036;stroke-width:1.0;" x1="263.5" x2="546.5" y1="790.3516" y2="790.3516"/><text fill="#000000" font-family="sans-serif" font-size="13" lengthAdjust="spacing" textLength="78" x="275.5" y="785.2856">回传MES判定</text><polygon fill="#A80036" points="34.5,815.4844,24.5,819.4844,34.5,823.4844,30.5,819.4844" style="stroke:#A80036;stroke-width:1.0;"/><line style="stroke:#A80036;stroke-width:1.0;" x1="28.5" x2="257.5" y1="819.4844" y2="819.4844"/><text fill="#000000" font-family="sans-serif" font-size="13" lengthAdjust="spacing" textLength="118" x="40.5" y="814.4185">1:为OK 其他为:错误</text><polygon fill="#A80036" points="246.5,844.6172,256.5,848.6172,246.5,852.6172,250.5,848.6172" style="stroke:#A80036;stroke-width:1.0;"/><line style="stroke:#A80036;stroke-width:1.0;" x1="23.5" x2="252.5" y1="848.6172" y2="848.6172"/><text fill="#000000" font-family="sans-serif" font-size="13" lengthAdjust="spacing" textLength="112" x="30.5" y="843.5513">发送指令扫码指令4</text><polygon fill="#A80036" points="458.5,873.75,468.5,877.75,458.5,881.75,462.5,877.75" style="stroke:#A80036;stroke-width:1.0;"/><line style="stroke:#A80036;stroke-width:1.0;" x1="258.5" x2="464.5" y1="877.75" y2="877.75"/><text fill="#000000" font-family="sans-serif" font-size="13" lengthAdjust="spacing" textLength="78" x="265.5" y="872.6841">发送LON指令</text><polygon fill="#A80036" points="269.5,902.8828,259.5,906.8828,269.5,910.8828,265.5,906.8828" style="stroke:#A80036;stroke-width:1.0;"/><line style="stroke:#A80036;stroke-width:1.0;" x1="263.5" x2="469.5" y1="906.8828" y2="906.8828"/><text fill="#000000" font-family="sans-serif" font-size="13" lengthAdjust="spacing" textLength="39" x="275.5" y="901.8169">二维码</text><line style="stroke:#A80036;stroke-width:1.0;" x1="258.5" x2="300.5" y1="936.0156" y2="936.0156"/><line style="stroke:#A80036;stroke-width:1.0;" x1="300.5" x2="300.5" y1="936.0156" y2="949.0156"/><line style="stroke:#A80036;stroke-width:1.0;" x1="259.5" x2="300.5" y1="949.0156" y2="949.0156"/><polygon fill="#A80036" points="269.5,945.0156,259.5,949.0156,269.5,953.0156,265.5,949.0156" style="stroke:#A80036;stroke-width:1.0;"/><text fill="#000000" font-family="sans-serif" font-size="13" lengthAdjust="spacing" textLength="104" x="265.5" y="930.9497">判断机种是否匹配</text><line style="stroke:#A80036;stroke-width:1.0;" x1="258.5" x2="300.5" y1="978.1484" y2="978.1484"/><line style="stroke:#A80036;stroke-width:1.0;" x1="300.5" x2="300.5" y1="978.1484" y2="991.1484"/><line style="stroke:#A80036;stroke-width:1.0;" x1="259.5" x2="300.5" y1="991.1484" y2="991.1484"/><polygon fill="#A80036" points="269.5,987.1484,259.5,991.1484,269.5,995.1484,265.5,991.1484" style="stroke:#A80036;stroke-width:1.0;"/><text fill="#000000" font-family="sans-serif" font-size="13" lengthAdjust="spacing" textLength="113" x="265.5" y="973.0825">判断是否为Sample</text><polygon fill="#A80036" points="535.5,1016.2813,545.5,1020.2813,535.5,1024.2813,539.5,1020.2813" style="stroke:#A80036;stroke-width:1.0;"/><line style="stroke:#A80036;stroke-width:1.0;" x1="258.5" x2="541.5" y1="1020.2813" y2="1020.2813"/><text fill="#000000" font-family="sans-serif" font-size="13" lengthAdjust="spacing" textLength="229" x="265.5" y="1015.2153">转发二维码 （SC，二维码，线材参数）</text><polygon fill="#A80036" points="269.5,1045.4141,259.5,1049.4141,269.5,1053.4141,265.5,1049.4141" style="stroke:#A80036;stroke-width:1.0;"/><line style="stroke:#A80036;stroke-width:1.0;" x1="263.5" x2="546.5" y1="1049.4141" y2="1049.4141"/><text fill="#000000" font-family="sans-serif" font-size="13" lengthAdjust="spacing" textLength="78" x="275.5" y="1044.3481">回传MES判定</text><polygon fill="#A80036" points="34.5,1074.5469,24.5,1078.5469,34.5,1082.5469,30.5,1078.5469" style="stroke:#A80036;stroke-width:1.0;"/><line style="stroke:#A80036;stroke-width:1.0;" x1="28.5" x2="257.5" y1="1078.5469" y2="1078.5469"/><text fill="#000000" font-family="sans-serif" font-size="13" lengthAdjust="spacing" textLength="118" x="40.5" y="1073.481">1:为OK 其他为:错误</text><polygon fill="#A80036" points="246.5,1103.6797,256.5,1107.6797,246.5,1111.6797,250.5,1107.6797" style="stroke:#A80036;stroke-width:1.0;"/><line style="stroke:#A80036;stroke-width:1.0;" x1="23.5" x2="252.5" y1="1107.6797" y2="1107.6797"/><text fill="#000000" font-family="sans-serif" font-size="13" lengthAdjust="spacing" textLength="125" x="30.5" y="1102.6138">发送指令5，扫码结束</text><line style="stroke:#A80036;stroke-width:1.0;" x1="258.5" x2="300.5" y1="1136.8125" y2="1136.8125"/><line style="stroke:#A80036;stroke-width:1.0;" x1="300.5" x2="300.5" y1="1136.8125" y2="1149.8125"/><line style="stroke:#A80036;stroke-width:1.0;" x1="259.5" x2="300.5" y1="1149.8125" y2="1149.8125"/><polygon fill="#A80036" points="269.5,1145.8125,259.5,1149.8125,269.5,1153.8125,265.5,1149.8125" style="stroke:#A80036;stroke-width:1.0;"/><text fill="#000000" font-family="sans-serif" font-size="13" lengthAdjust="spacing" textLength="86" x="265.5" y="1131.7466">缓存4个二维码</text><polygon fill="#A80036" points="246.5,1174.9453,256.5,1178.9453,246.5,1182.9453,250.5,1178.9453" style="stroke:#A80036;stroke-width:1.0;"/><line style="stroke:#A80036;stroke-width:1.0;" x1="23.5" x2="252.5" y1="1178.9453" y2="1178.9453"/><text fill="#000000" font-family="sans-serif" font-size="13" lengthAdjust="spacing" textLength="97" x="30.5" y="1173.8794">开始绕线信号ON</text><line style="stroke:#A80036;stroke-width:1.0;" x1="258.5" x2="300.5" y1="1208.0781" y2="1208.0781"/><line style="stroke:#A80036;stroke-width:1.0;" x1="300.5" x2="300.5" y1="1208.0781" y2="1221.0781"/><line style="stroke:#A80036;stroke-width:1.0;" x1="259.5" x2="300.5" y1="1221.0781" y2="1221.0781"/><polygon fill="#A80036" points="269.5,1217.0781,259.5,1221.0781,269.5,1225.0781,265.5,1221.0781" style="stroke:#A80036;stroke-width:1.0;"/><text fill="#000000" font-family="sans-serif" font-size="13" lengthAdjust="spacing" textLength="198" x="265.5" y="1203.0122">将4个缓存的码绑定到4个绕线通道</text><polygon fill="#A80036" points="246.5,1246.2109,256.5,1250.2109,246.5,1254.2109,250.5,1250.2109" style="stroke:#A80036;stroke-width:1.0;"/><line style="stroke:#A80036;stroke-width:1.0;" x1="23.5" x2="252.5" y1="1250.2109" y2="1250.2109"/><text fill="#000000" font-family="sans-serif" font-size="13" lengthAdjust="spacing" textLength="169" x="30.5" y="1245.145">提供张力，张力上下限等参数</text><polygon fill="#A80036" points="246.5,1275.3438,256.5,1279.3438,246.5,1283.3438,250.5,1279.3438" style="stroke:#A80036;stroke-width:1.0;"/><line style="stroke:#A80036;stroke-width:1.0;" x1="23.5" x2="252.5" y1="1279.3438" y2="1279.3438"/><text fill="#000000" font-family="sans-serif" font-size="13" lengthAdjust="spacing" textLength="84" x="30.5" y="1274.2778">第一组绕线ON</text><line style="stroke:#A80036;stroke-width:1.0;" x1="258.5" x2="300.5" y1="1308.4766" y2="1308.4766"/><line style="stroke:#A80036;stroke-width:1.0;" x1="300.5" x2="300.5" y1="1308.4766" y2="1321.4766"/><line style="stroke:#A80036;stroke-width:1.0;" x1="259.5" x2="300.5" y1="1321.4766" y2="1321.4766"/><polygon fill="#A80036" points="269.5,1317.4766,259.5,1321.4766,269.5,1325.4766,265.5,1321.4766" style="stroke:#A80036;stroke-width:1.0;"/><text fill="#000000" font-family="sans-serif" font-size="13" lengthAdjust="spacing" textLength="91" x="265.5" y="1303.4106">缓存一组的张力</text><polygon fill="#A80036" points="246.5,1346.6094,256.5,1350.6094,246.5,1354.6094,250.5,1350.6094" style="stroke:#A80036;stroke-width:1.0;"/><line style="stroke:#A80036;stroke-width:1.0;" x1="23.5" x2="252.5" y1="1350.6094" y2="1350.6094"/><text fill="#000000" font-family="sans-serif" font-size="13" lengthAdjust="spacing" textLength="89" x="30.5" y="1345.5435">第一组张力OFF</text><line style="stroke:#A80036;stroke-width:1.0;" x1="258.5" x2="300.5" y1="1379.7422" y2="1379.7422"/><line style="stroke:#A80036;stroke-width:1.0;" x1="300.5" x2="300.5" y1="1379.7422" y2="1392.7422"/><line style="stroke:#A80036;stroke-width:1.0;" x1="259.5" x2="300.5" y1="1392.7422" y2="1392.7422"/><polygon fill="#A80036" points="269.5,1388.7422,259.5,1392.7422,269.5,1396.7422,265.5,1392.7422" style="stroke:#A80036;stroke-width:1.0;"/><text fill="#000000" font-family="sans-serif" font-size="13" lengthAdjust="spacing" textLength="117" x="265.5" y="1374.6763">结束缓存第一组张力</text><polygon fill="#A80036" points="246.5,1417.875,256.5,1421.875,246.5,1425.875,250.5,1421.875" style="stroke:#A80036;stroke-width:1.0;"/><line style="stroke:#A80036;stroke-width:1.0;" x1="23.5" x2="252.5" y1="1421.875" y2="1421.875"/><text fill="#000000" font-family="sans-serif" font-size="13" lengthAdjust="spacing" textLength="84" x="30.5" y="1416.8091">第二组绕线ON</text><line style="stroke:#A80036;stroke-width:1.0;" x1="258.5" x2="300.5" y1="1451.0078" y2="1451.0078"/><line style="stroke:#A80036;stroke-width:1.0;" x1="300.5" x2="300.5" y1="1451.0078" y2="1464.0078"/><line style="stroke:#A80036;stroke-width:1.0;" x1="259.5" x2="300.5" y1="1464.0078" y2="1464.0078"/><polygon fill="#A80036" points="269.5,1460.0078,259.5,1464.0078,269.5,1468.0078,265.5,1464.0078" style="stroke:#A80036;stroke-width:1.0;"/><text fill="#000000" font-family="sans-serif" font-size="13" lengthAdjust="spacing" textLength="91" x="265.5" y="1445.9419">缓存二组的张力</text><polygon fill="#A80036" points="246.5,1489.1406,256.5,1493.1406,246.5,1497.1406,250.5,1493.1406" style="stroke:#A80036;stroke-width:1.0;"/><line style="stroke:#A80036;stroke-width:1.0;" x1="23.5" x2="252.5" y1="1493.1406" y2="1493.1406"/><text fill="#000000" font-family="sans-serif" font-size="13" lengthAdjust="spacing" textLength="89" x="30.5" y="1488.0747">第二组张力OFF</text><line style="stroke:#A80036;stroke-width:1.0;" x1="258.5" x2="300.5" y1="1522.2734" y2="1522.2734"/><line style="stroke:#A80036;stroke-width:1.0;" x1="300.5" x2="300.5" y1="1522.2734" y2="1535.2734"/><line style="stroke:#A80036;stroke-width:1.0;" x1="259.5" x2="300.5" y1="1535.2734" y2="1535.2734"/><polygon fill="#A80036" points="269.5,1531.2734,259.5,1535.2734,269.5,1539.2734,265.5,1535.2734" style="stroke:#A80036;stroke-width:1.0;"/><text fill="#000000" font-family="sans-serif" font-size="13" lengthAdjust="spacing" textLength="117" x="265.5" y="1517.2075">结束缓存第二组张力</text><polygon fill="#A80036" points="246.5,1560.4063,256.5,1564.4063,246.5,1568.4063,250.5,1564.4063" style="stroke:#A80036;stroke-width:1.0;"/><line style="stroke:#A80036;stroke-width:1.0;" x1="23.5" x2="252.5" y1="1564.4063" y2="1564.4063"/><text fill="#000000" font-family="sans-serif" font-size="13" lengthAdjust="spacing" textLength="102" x="30.5" y="1559.3403">开始绕线信号OFF</text><polygon fill="#A80036" points="34.5,1589.5391,24.5,1593.5391,34.5,1597.5391,30.5,1593.5391" style="stroke:#A80036;stroke-width:1.0;"/><line style="stroke:#A80036;stroke-width:1.0;" x1="28.5" x2="257.5" y1="1593.5391" y2="1593.5391"/><text fill="#000000" font-family="sans-serif" font-size="13" lengthAdjust="spacing" textLength="211" x="40.5" y="1588.4731">根据张力上下限提供张力结果（bit）</text><polygon fill="#A80036" points="535.5,1618.6719,545.5,1622.6719,535.5,1626.6719,539.5,1622.6719" style="stroke:#A80036;stroke-width:1.0;"/><line style="stroke:#A80036;stroke-width:1.0;" x1="258.5" x2="541.5" y1="1622.6719" y2="1622.6719"/><text fill="#000000" font-family="sans-serif" font-size="13" lengthAdjust="spacing" textLength="155" x="265.5" y="1617.606">上传产品信息（UL,JSON）</text><!--MD5=[0f07d16bb2b95d5d126085914bea360d]
@startuml
G4 -> IPC : 发送指令扫码指令1
IPC -> SCANNER : 发送LON指令
SCANNER -> IPC : 二维码
IPC->IPC:判断机种是否匹配
IPC->IPC:判断是否为Sample
IPC->MES:转发二维码 （SC，二维码，线材参数）
MES->IPC:回传MES判定
IPC->G4:1:为OK 其他为:错误
G4 -> IPC : 发送指令扫码指令2
IPC -> SCANNER : 发送LON指令
SCANNER -> IPC : 二维码
IPC->IPC:判断机种是否匹配
IPC->IPC:判断是否为Sample
IPC->MES:转发二维码 （SC，二维码，线材参数）
MES->IPC:回传MES判定
IPC->G4:1:为OK 其他为:错误
G4 -> IPC : 发送指令扫码指令3
IPC -> SCANNER : 发送LON指令
SCANNER -> IPC : 二维码
IPC->IPC:判断机种是否匹配
IPC->IPC:判断是否为Sample
IPC->MES:转发二维码 （SC，二维码，线材参数）
MES->IPC:回传MES判定
IPC->G4:1:为OK 其他为:错误
G4 -> IPC : 发送指令扫码指令4
IPC -> SCANNER : 发送LON指令
SCANNER -> IPC : 二维码
IPC->IPC:判断机种是否匹配
IPC->IPC:判断是否为Sample
IPC->MES:转发二维码 （SC，二维码，线材参数）
MES->IPC:回传MES判定
IPC->G4:1:为OK 其他为:错误
G4->IPC:发送指令5，扫码结束
IPC->IPC:缓存4个二维码
G4->IPC:开始绕线信号ON
IPC->IPC:将4个缓存的码绑定到4个绕线通道
G4->IPC:提供张力，张力上下限等参数
G4->IPC:第一组绕线ON
IPC->IPC:缓存一组的张力
G4->IPC:第一组张力OFF
IPC->IPC:结束缓存第一组张力
G4->IPC:第二组绕线ON
IPC->IPC:缓存二组的张力
G4->IPC:第二组张力OFF
IPC->IPC:结束缓存第二组张力
G4->IPC:开始绕线信号OFF
IPC->G4:根据张力上下限提供张力结果（bit）
IPC->MES:上传产品信息（UL,JSON）
@enduml

PlantUML version 1.2021.7(Sun May 23 12:40:07 UTC 2021)
(GPL source distribution)
Java Runtime: Java(TM) SE Runtime Environment
JVM: Java HotSpot(TM) 64-Bit Server VM
Default Encoding: UTF-8
Language: en
Country: US
--></g></svg>